<?xml version="1.0" encoding="UTF-8" standalone="no"?>
<!-- Uploaded to: SVG Repo, www.svgrepo.com, Generator: SVG Repo Mixer Tools -->

<svg
   width="28"
   height="40"
   viewBox="-3 0 0.7 1"
   version="1.1"
   id="svg12"
   sodipodi:docname="pin-fill-black.svg"
   inkscape:version="1.2.2 (b0a8486541, 2022-12-01)"
   xmlns:inkscape="http://www.inkscape.org/namespaces/inkscape"
   xmlns:sodipodi="http://sodipodi.sourceforge.net/DTD/sodipodi-0.dtd"
   xmlns="http://www.w3.org/2000/svg"
   xmlns:svg="http://www.w3.org/2000/svg"
   xmlns:rdf="http://www.w3.org/1999/02/22-rdf-syntax-ns#"
   xmlns:cc="http://creativecommons.org/ns#"
   xmlns:dc="http://purl.org/dc/elements/1.1/">
  <sodipodi:namedview
     id="namedview14"
     pagecolor="#ffffff"
     bordercolor="#000000"
     borderopacity="0.25"
     inkscape:showpageshadow="2"
     inkscape:pageopacity="0.0"
     inkscape:pagecheckerboard="0"
     inkscape:deskcolor="#d1d1d1"
     showgrid="false"
     inkscape:zoom="7.43"
     inkscape:cx="36.742934"
     inkscape:cy="25.572005"
     inkscape:window-width="1920"
     inkscape:window-height="1007"
     inkscape:window-x="0"
     inkscape:window-y="0"
     inkscape:window-maximized="1"
     inkscape:current-layer="svg12" />
  <title
     id="title2">pin_fill_sharp_circle [#634]</title>
  <desc
     id="desc4">Created with Sketch.</desc>
  <defs
     id="defs6" />
  <g
     id="Page-1"
     stroke="none"
     stroke-width="1"
     fill="none"
     fill-rule="evenodd"
     transform="matrix(0.05,0,0,0.05,-3,0)">
    <g
       id="Dribbble-Light-Preview"
       transform="translate(-223,-5399)"
       fill="#000000">
      <g
         id="icons"
         transform="translate(56,160)">
        <path
           d="m 174,5248.219 c -1.105,0 -2,-0.895 -2,-2 0,-1.105 0.895,-2 2,-2 1.105,0 2,0.895 2,2 0,1.105 -0.895,2 -2,2 m 0,-9.219 c -3.866,0 -7,3.134 -7,7 0,3.866 7,13 7,13 0,0 7,-9.134 7,-13 0,-3.866 -3.134,-7 -7,-7"
           id="pin_fill_sharp_circle-[#634]" />
      </g>
    </g>
  </g>
  <metadata
     id="metadata16">
    <rdf:RDF>
      <cc:Work
         rdf:about="">
        <dc:title>pin_fill_sharp_circle [#634]</dc:title>
      </cc:Work>
    </rdf:RDF>
  </metadata>
</svg>
